<svg xmlns="http://www.w3.org/2000/svg" viewBox="0 0 500 500"><defs><style>.cls-1,.cls-4{fill:#080918;}.cls-1,.cls-4,.cls-5{stroke:#fff;stroke-miterlimit:10;}.cls-1{stroke-width:0.75px;}.cls-2{fill:#fafafd;}.cls-3,.cls-5{fill:#2678bc;}.cls-4,.cls-5{stroke-width:2px;}.cls-6{fill:#fff;}</style></defs><title>smartvisionwithouttext</title><g id="Layer_2" data-name="Layer 2"><ellipse class="cls-1" cx="264.53" cy="185.26" rx="35.78" ry="38.06"/><ellipse class="cls-2" cx="264.93" cy="185.43" rx="26.9" ry="28.62"/><ellipse class="cls-3" cx="265.23" cy="183.82" rx="18.95" ry="20.16"/></g><g id="Layer_3" data-name="Layer 3"><path class="cls-4" d="M214.44,182.61s-10.88-29.43-5.24-44.75l51.2-15.32L281,129.8s40.71-18.95,68.93-20.16c0,0,10.08,24.19-1.61,67.72,0,0-14.51,81.43-88.69,110.05,0,0-23.38-6.45-53.21-40.31l12.9-8.47s29.43,24.59,41.12,28.62c0,0,71.35-24.59,74.17-131.82L287.81,150s-16.12-12.5-40.31-3.63c0,0-21,8.87-24.19,32.65Z"/></g><g id="Layer_4" data-name="Layer 4"><path class="cls-5" d="M301.52,163.26,315.62,158s16.12,56.84-53.61,87.07c0,0-21.37-10.88-31-29,0,0-29.83,18.14-33.46,21,0,0-30.23-43.94-31-117.31l92.31-33.06,52.81,18.95-31.44,10.48L260,109.24l-74.17,26.2s2.42,43.94,14.51,72.16l23.78-12.5s10.08,35.47,48.37,30.64C272.49,225.74,319.66,212.84,301.52,163.26Z"/></g><g id="Layer_5" data-name="Layer 5"><path class="cls-6" d="M273.2,164.27S262.31,186,285.29,177C285.29,177,287.71,165.48,273.2,164.27Z"/></g></svg>